<?xml version="1.0" standalone="no"?><svg xmlns="http://www.w3.org/2000/svg" viewBox="0 0 1440 320"><path fill="#000b76" fill-opacity="1" d="M0,0L0,128L102.9,128L102.9,224L205.7,224L205.7,64L308.6,64L308.6,32L411.4,32L411.4,256L514.3,256L514.3,288L617.1,288L617.1,128L720,128L720,224L822.9,224L822.9,32L925.7,32L925.7,160L1028.6,160L1028.6,160L1131.4,160L1131.4,256L1234.3,256L1234.3,224L1337.1,224L1337.1,160L1440,160L1440,320L1337.1,320L1337.1,320L1234.3,320L1234.3,320L1131.4,320L1131.4,320L1028.6,320L1028.6,320L925.7,320L925.7,320L822.9,320L822.9,320L720,320L720,320L617.1,320L617.1,320L514.3,320L514.3,320L411.4,320L411.4,320L308.6,320L308.6,320L205.7,320L205.7,320L102.9,320L102.9,320L0,320L0,320Z"></path></svg>